<svg version="1.2" xmlns="http://www.w3.org/2000/svg" viewBox="0 0 512 512" width="512" height="512">
	<title>image</title>
	<style>
		.s0 { fill: #000000 } 
	</style>
	<path id="Path 0" fill-rule="evenodd" class="s0" d="m255.5 0.1c6.4-0.1 9.3 0.4 14.5 2.4 3.6 1.4 7.9 3.4 9.5 4.5 1.6 1 4.1 3.1 5.5 4.5 1.4 1.5 3.7 3.3 5.3 4.1 2 1 7.1 1.4 19.9 1.4 15.9 0 17.7 0.2 21.7 2.3 2.5 1.2 5.1 3.2 7.1 6.7h51.5c50.4 0 51.6 0 57.3 2.2 4 1.5 7.4 3.8 11.3 7.7 3.8 3.8 6.3 7.5 10.4 17.6l0.3 211.5c0.2 156.4 0 213.1-0.9 217.5-0.6 3.3-2 7.8-3 10-1 2.2-3.5 6-5.6 8.4-2.5 2.8-6.3 5.5-17.8 11.1h-373l-7-3.4c-4.5-2.2-8.3-4.9-10.8-7.7-2.1-2.4-4.6-6.2-5.6-8.4-1-2.2-2.4-6.5-3-9.5-0.9-4.1-1.1-57.6-0.6-429.5l2.4-6c1.7-4.1 4.2-7.8 8-11.6 3.9-3.9 7.3-6.2 11.4-7.7 5.6-2.2 6.8-2.2 57.2-2.2 50.5 0 51.5 0 52.5-2 0.6-1.1 2.7-3 4.8-4.3 3.4-2 5.2-2.2 43.1-3.2l3.8-3.6c2.1-2 5.4-4.7 7.3-6 1.9-1.3 6-3.3 9-4.5 3.9-1.6 7.8-2.3 13.5-2.3zm-11.5 20.4c-1.9 1-5.4 3.5-7.7 5.6-2.4 2.2-5.8 4.7-7.5 5.7-2.8 1.4-6.4 1.7-22 1.9l-18.8 0.3v34h136v-34c-34.4-0.5-38-0.8-40.8-2.3-1.7-0.9-5.1-3.4-7.5-5.6-2.3-2.1-6-4.8-8.2-5.9-2.2-1.1-6.3-2.3-9-2.6-2.8-0.3-6.3-0.1-8 0.3-1.7 0.4-4.6 1.6-6.5 2.6zm-180.1 27.5c-1 1.4-2.2 3.7-2.8 5.3-0.8 1.9-1.1 67.3-1.1 215.9v213.3c3.7 6.4 6.1 8.7 9 10.2l4.5 2.3h365c7.4-3.8 9.8-6.1 11.2-8.6l2.3-3.9-0.5-429.4c-3.3-4.3-5.5-6.5-6.9-7.6-2.6-1.9-4.5-2-53.2-2.3l-50.4-0.2 0.5 16.5 83.2 1c5.3 4 7.6 6.8 8.5 8.8 1.7 3.5 1.8 15.1 1.8 199.9-0.1 194.6-0.1 196.3-2.1 199.8-1.1 1.9-3.6 4.6-5.6 6l-3.7 2.5c-331 0.5-333.2 0.5-337.4-1.5-2.8-1.4-5-3.4-6.7-6.3l-2.5-4.2c0-381.1 0.1-392.7 1.7-396.2 1-2 3.3-4.8 5.2-6.2l3.4-2.6 83.2-1 0.5-16.5c-86.3 0.1-99.4 0.4-102 1.3-1.9 0.7-4.2 2.4-5.1 3.7zm30.1 413h324v-384h-79c-3.5 4.1-6 5.9-7.8 6.7-2.5 1-17.8 1.3-75.2 1.3-57.4 0-72.7-0.3-75.3-1.3-1.7-0.8-4.2-2.6-5.5-4l-2.2-2.7h-79zm161.9-427c11 0 11.1 0 14.1 3 1.7 1.7 3 4.1 3 5.5 0 1.4-0.3 3.2-0.8 4.1-0.4 0.9-1.9 2.3-3.5 3-1.8 0.9-6.4 1.4-13.7 1.4-10.4 0-11.1-0.1-13.5-2.5-1.6-1.6-2.5-3.6-2.4-5.6 0-1.9 1.1-4.1 2.9-6 2.8-2.9 3-2.9 13.9-2.9zm-94.7 68.1c12.6-0.1 18.8 0.3 21 1.2 2.2 0.9 3.8 2.5 4.7 4.8 1.2 3 1.2 3.8-0.3 6.6-0.9 1.8-2.6 3.5-3.9 3.8-1.2 0.2-10.8 0.6-21.4 0.7-18.9 0.3-19.2 0.3-24.4 5.3l0.1 29.2c0 27.9 0.1 29.4 2 31.3 1.1 1.1 3 2.2 4.2 2.5 1.3 0.3 14.6 0.5 29.5 0.3 26.8-0.3 27.3-0.3 29.5-2.6 2.1-2 2.3-3.4 2.8-14.8 0.5-12 0.6-12.7 3-14.5 1.4-1.1 3.7-2 5.2-1.9 1.6 0 3.5 0.3 4.4 0.7 0.9 0.5 2.3 2 3 3.5 0.9 1.8 1.4 6.4 1.4 13 0 6.2-0.6 12.4-1.5 15.5-1.1 3.9-2.8 6.6-6.5 10.3-3.7 3.7-6.4 5.4-10.3 6.5-4.1 1.2-11.2 1.5-33.2 1.5-15.4 0-29.6-0.4-31.5-1-1.9-0.5-5.7-2.4-8.5-4.2-3.7-2.5-5.7-4.8-11-15.2v-29.5c0-16.3 0.3-31.2 0.7-33.1 0.4-1.9 2.2-5.7 4-8.4 1.8-2.7 4.9-5.8 6.8-6.9 1.9-1.2 5.5-2.7 8-3.4 2.7-0.7 11.8-1.2 22.2-1.2zm60.6 0.9c3.4 0 4.6 0.5 6.2 2.7 1.2 1.6 2.1 4.1 2 5.8 0 2.6-3.9 6.9-27.9 30.9-26.2 26.2-28.2 28-31.6 28-3.2 0.1-4.4-0.7-10.1-6.7-5.2-5.5-6.4-7.3-6.4-10 0-1.7 0.6-3.9 1.3-4.8 0.7-0.9 2.2-2.1 3.4-2.7 1.3-0.7 3.5-1 5-0.7 1.6 0.2 3.7 1.4 6.8 4.6l23.5-23.6c23.3-23.2 23.6-23.5 27.8-23.5zm40 25h15.6c15.1 0 15.7 0.1 18.3 2.4 2.1 1.8 2.8 3.3 2.8 6.1 0 2.8-0.7 4.3-2.8 6.1-2.6 2.3-3.3 2.4-17.7 2.4-8.3 0-16-0.5-17.3-1-1.2-0.6-2.8-2.1-3.5-3.5-0.6-1.4-1.2-3.4-1.1-4.6 0-1.1 1.3-3.4 2.9-5zm0 34h61.6c38.7 0 62.5 0.4 64.1 1 1.3 0.6 3.1 2.5 3.8 4.3 0.8 1.8 1.1 4.3 0.8 5.6-0.4 1.4-1.8 3.3-3.1 4.3-2.4 1.8-5.4 1.9-64.8 1.9-34.2-0.1-63-0.4-63.9-0.8-0.9-0.4-2.2-2-3-3.5-0.7-1.5-1.3-3.7-1.3-4.9 0.1-1.1 1.4-3.3 3-5zm-101.1 60.1c21-0.1 21.2 0 24 2.4 2 1.8 2.7 3.3 2.7 6 0 2.8-0.7 4.3-2.7 6.1-2.8 2.4-3.1 2.4-42.9 2.4l-4.9 5v59l2.8 2.1c2.6 1.9 4.1 2 60.2 1.9l2.5-3c2.3-2.8 2.5-3.7 2.5-14.2 0.1-7.3 0.5-11.8 1.3-12.8 0.7-0.9 2.2-2.2 3.5-2.8 1.2-0.6 3.1-1.2 4.2-1.2 1.1 0 3.4 1.4 8 6l-0.2 13.3c-0.3 12.6-0.4 13.5-3.3 18.6-1.6 2.9-4.6 6.5-6.5 8-1.9 1.4-5.1 3.1-7 3.8-2.5 0.9-12.5 1.3-34.5 1.3-30.4 0-31.1 0-36-2.3-2.7-1.3-6.5-4.1-8.4-6.2-1.9-2.2-4.1-5.5-5-7.5-1.3-2.9-1.6-8.4-1.6-35 0-26.5 0.3-32 1.6-35 0.9-1.9 3.1-5.2 5-7.4 1.9-2.1 5.7-4.9 8.4-6.2 4.7-2.2 6.1-2.3 26.3-2.3zm61-0.1c2.1 0 4.1 0.9 5.7 2.5 1.8 1.8 2.5 3.6 2.5 6.3 0 3.6-1.3 5-27.8 31.5-24.9 24.9-28.1 27.7-31 27.7-2.6 0-4.5-1.2-10.2-6.7-5.9-5.7-7-7.3-7-10 0-2.1 0.9-4.2 2.5-5.8 1.5-1.5 3.5-2.5 5.5-2.5 1.6 0 4.4 1.1 9.2 4.5l23.7-23.7c21.1-21.1 24.1-23.8 26.9-23.8zm54.7 25.1c6.6 0 13.7 0.4 15.8 1 2.8 0.7 4.1 1.8 5.5 4.4 1.6 3.4 1.6 3.7 0 7-1.4 2.7-2.7 3.8-5.5 4.5-2.1 0.6-9.2 1-15.8 1-9.4 0-12.7-0.3-15.5-1.7-2-1-3.9-2.9-4.5-4.5-0.7-1.9-0.7-3.7 0-5.5 0.6-1.6 2.5-3.5 4.5-4.5 2.8-1.4 6.1-1.7 15.5-1.7zm-15.6 34.9l126.6 0.1 2.3 2.2c1.6 1.6 2.3 3.4 2.2 6 0 2.4-0.7 4.5-2 5.7-1.1 1.1-3.5 2.3-5.2 2.6-1.8 0.3-30.4 0.4-124-0.1l-2.4-2.7c-1.4-1.7-2.4-4-2.3-5.8 0-1.8 1-4 2.4-5.5zm-99.7 59.2c14.1-0.2 19.5 0.1 21.5 1.2 1.6 0.7 3.4 2.6 4.2 4.2 1 2.2 1.1 3.6 0.2 5.9-0.6 1.7-2.1 3.6-3.3 4.2-1.6 0.9-8.8 1.4-22 1.5-19.4 0.3-19.7 0.3-24.9 5.3l0.1 28.8c0 17.1 0.4 29.5 1 30.7 0.5 1.1 2.5 2.5 4.2 3 1.9 0.6 14.3 1 29 1 20.9 0 26.4-0.3 28.8-1.5 1.6-0.8 3.4-2.6 4-4 0.5-1.4 1-7.1 1-12.7-0.1-8.8 0.2-10.7 2-13 1.5-2.2 2.8-2.8 5.7-2.8 2.3-0.1 4.8 0.7 6.3 1.9 2.4 1.8 2.5 2.6 2.9 13.3 0.2 8.3-0.1 12.8-1.3 17.1-1.2 4.4-2.7 6.8-6.6 10.7-3.7 3.7-6.4 5.4-10.3 6.5-4.3 1.3-10.6 1.5-65.2 1l-5.4-3c-3-1.6-6.4-4.3-7.7-6-1.2-1.6-3.1-4.8-4.1-7-1.5-3.4-1.8-7.8-2.1-31-0.2-17 0-29.2 0.7-33 0.6-3.3 2.4-8 3.9-10.5 1.8-2.9 4.7-5.6 8.2-7.7 3-1.8 6.6-3.4 8-3.6 1.4-0.2 10.9-0.5 21.2-0.5zm62.1 0.6c1.2 0.2 3.2 1.4 4.5 2.6 1.5 1.4 2.2 3.2 2.2 5.6 0 3.2-2.1 5.6-27.3 30.8-14.9 15.1-28.2 27.8-29.5 28.3-1.5 0.6-3.3 0.5-5.5-0.5-1.7-0.7-5.6-3.9-8.5-7-3.9-4.2-5.2-6.4-5.2-8.6 0-1.6 0.3-3.7 0.7-4.6 0.5-0.9 2-2.3 3.5-3 1.6-0.8 3.7-1.4 4.8-1.4 1.1 0 3.2 1.1 7.5 4.9l22.5-22.6c12.4-12.4 23.8-23.1 25.3-23.8 1.6-0.7 3.8-1 5-0.7zm54.4 25.3c14.8-0.1 15.4 0 18 2.3 2.1 1.8 2.8 3.3 2.8 6.1 0 2.8-0.7 4.3-2.8 6.1-2.6 2.3-3.2 2.4-33.7 2.4l-3-3c-1.7-1.6-3-3.9-3-5 0-1.1 0.6-3.1 1.2-4.5 0.7-1.4 2.2-2.9 3.3-3.4 1.1-0.5 8.9-1 17.2-1zm-15.9 33.9h125.2l2.5 2.5c1.4 1.4 2.6 3.3 2.6 4.3 0.1 0.9 0.1 2.6 0 3.7-0.1 1.1-1.3 3-5.1 6.5h-62.8c-47.7-0.1-63.1-0.4-64.3-1.3-0.9-0.7-2.1-2.2-2.7-3.4-0.7-1.3-1.2-3.2-1.1-4.4 0-1.1 1.3-3.4 2.9-5z"/>
</svg>